#!OML:ASF F:\VICON\USERDATA\INSTALL\rory3\rory3.ASF
:FULLY-SPECIFIED
:DEGREES
1407
root 4.31333 17.6994 -4.06317 8.8666 10.6299 -1.50796
lowerback 14.8511 1.07253 -4.65808
upperback 5.81227 0.762054 -1.04854
thorax -2.21134 0.350887 1.40518
lowerneck -22.0982 -3.76976 -12.6771
upperneck 14.5202 -1.29292 0.804659
head 8.24677 -1.25138 2.11673
rclavicle 8.74653e-015 1.27222e-014
rhumerus -0.0944581 29.6631 -98.0688
rradius 45.1682
rwrist 28.4646
rhand -29.076 0.568067
rfingers 7.12502
rthumb -2.42506 -29.3979
lclavicle 8.74653e-015 1.27222e-014
lhumerus 0.535372 -18.3005 89.4041
lradius 41.2159
lwrist 5.00022
lhand -13.7699 42.8206
lfingers 7.12502
lthumb 12.351 72.4358
rfemur -32.7653 -1.07329 10.8357
rtibia 18.9876
rfoot -15.4668 -19.1523
rtoes 7.30359
lfemur -24.8727 -3.45594 -15.8217
ltibia 33.5968
lfoot -14.8925 -7.51313
ltoes -14.1561
1408
root 4.28345 17.6867 -4.04315 9.28724 10.9827 -1.46408
lowerback 15.1837 1.07705 -4.56967
upperback 5.91829 0.766973 -1.02366
thorax -2.27653 0.354633 1.37761
lowerneck -22.0137 -3.90517 -12.9108
upperneck 14.2179 -1.4898 1.13505
head 8.14569 -1.31 2.2391
rclavicle 1.55052e-014 3.02153e-014
rhumerus -0.793891 29.5782 -97.6476
rradius 45.1672
rwrist 29.0883
rhand -29.5063 0.0773383
rfingers 7.12502
rthumb -2.84068 -29.8835
lclavicle 1.55052e-014 3.02153e-014
lhumerus 0.205414 -19.585 88.8672
lradius 40.8732
lwrist 3.71558
lhand -14.1074 41.4576
lfingers 7.12502
lthumb 12.0255 71.0921
rfemur -33.107 -0.740596 10.4643
rtibia 18.0532
rfoot -15.3053 -19.2884
rtoes 7.08837
lfemur -25.5315 -3.44807 -15.7075
ltibia 33.9193
lfoot -14.9751 -7.81885
ltoes -13.8182
1409
root 4.25037 17.6749 -4.02129 9.76486 11.3201 -1.35722
lowerback 15.4571 1.06481 -4.5924
upperback 6.03339 0.7389 -0.990121
thorax -2.29895 0.339883 1.42812
lowerneck -22.0241 -4.00408 -13.1841
upperneck 13.9922 -1.61031 1.48259
head 8.08293 -1.33642 2.38331
rclavicle 2.18663e-014 3.73715e-014
rhumerus -1.3903 29.6853 -97.2153
rradius 45.0108
rwrist 29.9674
rhand -30.2604 -0.630838
rfingers 7.12502
rthumb -3.56896 -30.5807
lclavicle 2.18663e-014 3.73715e-014
lhumerus -0.176809 -20.6037 88.383
lradius 40.751
lwrist 1.90989
lhand -13.9692 40.0969
lfingers 7.12502
lthumb 12.1588 69.7235
rfemur -33.5141 -0.222102 9.92998
rtibia 17.2774
rfoot -15.049 -19.5807
rtoes 6.11505
lfemur -26.2275 -3.44066 -15.6468
ltibia 34.2234
lfoot -15.0944 -8.09337
ltoes -13.7997
1410
root 4.21725 17.6604 -4.00133 10.2754 11.693 -1.2156
lowerback 15.736 1.04229 -4.61225
upperback 6.15881 0.698228 -0.954184
thorax -2.31213 0.318713 1.48196
lowerneck -22.0008 -4.11349 -13.488
upperneck 13.7231 -1.74717 1.86339
head 8.00252 -1.36722 2.54141
rclavicle -2.3059e-014 -3.18055e-015
rhumerus -1.89459 29.6516 -96.7626
rradius 44.8007
rwrist 31.6074
rhand -30.5621 -1.64134
rfingers 7.12502
rthumb -3.86032 -31.5861
lclavicle -2.3059e-014 -3.18055e-015
lhumerus -0.693122 -21.9329 88.0041
lradius 40.684
lwrist 1.44418
lhand -15.1831 38.8059
lfingers 7.12502
lthumb 10.9882 68.4983
rfemur -33.9753 0.158567 9.40947
rtibia 16.6141
rfoot -14.9451 -19.8465
rtoes 5.87637
lfemur -26.9435 -3.4621 -15.6222
ltibia 34.4927
lfoot -15.1317 -8.36563
ltoes -13.9961
1411
root 4.18291 17.6428 -3.98305 10.7705 12.117 -1.03582
lowerback 16.1326 1.0343 -4.59554
upperback 6.2206 0.671348 -0.957628
thorax -2.45474 0.308616 1.4701
lowerneck -21.5797 -4.21909 -13.7385
upperneck 13.2551 -1.96645 2.26352
head 7.79658 -1.42602 2.6888
rclavicle 3.18055e-015 -3.57812e-014
rhumerus -2.40491 29.317 -96.3985
rradius 44.6561
rwrist 32.976
rhand -30.078 -2.47611
rfingers 7.12502
rthumb -3.3928 -32.4289
lclavicle 3.18055e-015 -3.57812e-014
lhumerus -1.4437 -24.003 87.6822
lradius 40.6081
lwrist 3.1116
lhand -19.1262 35.689
lfingers 7.12502
lthumb 7.18329 65.5471
rfemur -34.3994 0.427003 8.91278
rtibia 16.015
rfoot -15.303 -19.9896
rtoes 6.61881
lfemur -27.6666 -3.53234 -15.6253
ltibia 34.7425
lfoot -15.1218 -8.70007
ltoes -13.6947
